<?xml version="1.0" encoding="iso-8859-1"?>
<!-- Generator: Adobe Illustrator 19.2.1, SVG Export Plug-In . SVG Version: 6.00 Build 0)  -->
<svg version="1.1" id="Layer_1" xmlns="http://www.w3.org/2000/svg" xmlns:xlink="http://www.w3.org/1999/xlink" x="0px" y="0px"
	 viewBox="0 0 40 40" style="enable-background:new 0 0 40 40;" xml:space="preserve">
<g>
	<g>
		<polygon style="fill:#F5CE85;" points="4.5,38.5 4.5,19.5 25.5,19.5 25.5,32.5 32.5,32.5 32.5,19.5 35.5,19.5 35.5,38.5 		"/>
	</g>
	<g>
		<path style="fill:#967A44;" d="M35,20v12v6h-3h-6H12H5V20h20v12v1h1h6h1v-1V20H35 M36,19h-4v13h-6V19H4v20h8h14h6h4v-7V19L36,19z"
			/>
	</g>
</g>
<g>
	<rect x="10.5" y="23.5" style="fill:#DBF2FF;" width="9" height="9"/>
	<path style="fill:#4E7AB5;" d="M19,24v8h-8v-8H19 M20,23H10v10h10V23L20,23z"/>
</g>
<g>
	<polygon style="fill:#B08159;" points="1.5,19.5 1.5,19.227 9.187,12.5 30.812,12.5 38.5,19.227 38.5,19.5 	"/>
	<g>
		<path style="fill:#704E34;" d="M30.624,13l6.857,6H2.519l6.857-6H30.624 M31,12H9l-8,7l0,1h38v-1L31,12L31,12z"/>
	</g>
</g>
<g>
	<polygon style="fill:#B08159;" points="5.5,12.5 5.5,12.253 20,1.62 34.5,12.253 34.5,12.5 	"/>
	<g>
		<path style="fill:#704E34;" d="M20,2.24L33.309,12H6.691L20,2.24 M20,1L5,12v1h30v-1L20,1L20,1z"/>
	</g>
</g>
</svg>
