<svg version="1.1"
	 xmlns="http://www.w3.org/2000/svg" x="0px" y="0px" viewBox="0 0 48 48"
	 style="enable-background:new 0 0 48 48;" xml:space="preserve">
<path style="fill:#29B6F6;" d="M7.171,37.338C7.581,39.644,14.616,40.368,11,43c-0.681,0.496-2.044,1-3,1
	c-2,0-2.669-1.763-2.669-2.697C5.331,40.048,5.942,38.192,7.171,37.338z"/>
<path style="fill:#29B6F6;" d="M34.838,35.578c0.718,0.479,3.112,1.407,3.112,4.407C37.949,40.984,37,42,36,42
	c-3.969,0-6.635-1.924-10.081-4.085l6.012-1.372l1.381-0.276c0.14-0.025,0.278-0.053,0.414-0.084L34.838,35.578z"/>
<path style="fill:#29B6F6;" d="M26.975,9.633c-0.949-2.74-3.546-4.711-6.609-4.711c-2.321,0-4.373,1.135-5.646,2.875
	c-1.532-0.247-3.825-0.323-5.402,0.959c0,0,3.625,0.208,3.597,0.854c-2.073,0.173-4.924,0.658-7.774,3.335
	c0,0,3.316-0.905,5.709-0.563C8.858,13.453,4,16,4,23c0,0,1.431-2.55,3.54-4.54c-0.4,1.227-0.663,2.551-0.663,3.941
	c0,1.998,0.65,3.864,1.428,5.427c0.433,0.869,0.906,1.645,1.329,2.298l1.59,2.454l0.806-1.118c2.158,1.098,4.907,1.047,5.682,0.199
	c0.647-0.708-2.758-1.843-2.398-2.823c0.134-0.366,0.487-0.641,1.023-0.771l14.744-3.557c0.537-0.13,1.077,0.201,1.207,0.738
	l0.299,1.238c0.378-0.608,0.601-1.531,0.601-1.531s0.452-2.209,0.452-3.374C33.64,16.597,30.857,12.081,26.975,9.633z"/>
<path style="fill:#1A237E;" d="M26.976,17.968c0.039-0.055,0.058-0.088,0.071-0.114c-1.44,1.39-3.828,2.301-6.535,2.301
	c-2.808,0-5.271-0.98-6.691-2.458c-0.027,0.219-0.058,0.438-0.058,0.664c0,3.672,3.04,6.648,6.789,6.648
	c2.695,0,5.023-1.537,6.119-3.765c-0.502,0.409-1.216,1.126-2.798,1.484c-1.141,0.258-1.631-1.047-1.776-1.526
	c0.856-0.142,1.92-0.602,2.956-1.349C25.871,19.264,26.533,18.6,26.976,17.968z"/>
<circle style="fill:#FFFFFF;" cx="20.365" cy="11.921" r="5"/>
<path style="fill:#000001;" d="M21.981,10.353c-0.173,0-0.259,0-0.432,0.086c0.086,0.086,0.172,0.259,0.172,0.346
	c0,0.345-0.258,0.604-0.604,0.604c-0.173,0-0.259-0.086-0.346-0.172c0,0.086-0.086,0.259-0.086,0.432
	c0,0.691,0.605,1.295,1.295,1.295s1.295-0.605,1.295-1.295S22.672,10.353,21.981,10.353z"/>
<path style="fill:#616161;" d="M43.893,25.08c-0.235-1.078-1.314-1.761-2.407-1.523l0.213,0.977c0.555-0.121,1.1,0.219,1.217,0.758
	c0.117,0.54-0.237,1.075-0.792,1.196l-6.053,1.318c-1.079,0.235-1.764,1.3-1.529,2.38c0,0,0.094,0.246,0.388,0.626
	c0.418,0.542,0.681,0.842,0.783,0.975c0.437,0.567,0.445,1.118,0.445,1.118c0.235,1.079-0.474,2.15-1.583,2.392L9.47,40.763
	c-0.555,0.121-1.099-0.219-1.217-0.758l-1.489-6.84C6.646,32.625,7,32.09,7.555,31.969l0.194-0.042
	c-0.095-0.319-0.162-0.647-0.199-0.98l-0.207,0.045c-1.093,0.238-1.79,1.308-1.556,2.386l1.489,6.84
	c0.235,1.078,1.314,1.761,2.407,1.523l25.106-5.467c1.619-0.352,2.664-1.912,2.364-3.5c-0.024-0.279-0.845-0.627-1.356-1.291
	c-0.039-0.05,0,0-0.079-0.096c-0.134-0.163-0.028-0.21-0.298-0.559c-0.112-0.145,0.122-0.884,0.084-0.951
	c-0.059-0.504,0.275-0.982,0.781-1.092l6.053-1.318C43.43,27.227,44.128,26.157,43.893,25.08z"/>
<path style="fill:#FFEA00;" d="M41.486,23.557l-7.03,1.531L7.342,30.992c-0.555,0.121-0.909,0.656-0.791,1.196l1.702,7.817
	c0.118,0.54,0.662,0.879,1.217,0.758l26.083-5.68c1.109-0.242,1.818-1.312,1.583-2.392c0,0-0.008-0.551-0.445-1.118
	c-0.102-0.133-0.364-0.433-0.783-0.975c-0.293-0.38-0.388-0.626-0.388-0.626c-0.235-1.079,0.449-2.145,1.529-2.38l5.076-1.105
	c0.555-0.121,0.909-0.656,0.791-1.196l-0.213-0.977C42.586,23.776,42.041,23.436,41.486,23.557z"/>
<path style="fill:#757575;" d="M33.232,32.518l-22.473,4.894c-0.54,0.118-1.072-0.225-1.19-0.764l-1.489-6.84
	c-0.118-0.54,0.225-1.072,0.764-1.19l22.473-4.894c0.54-0.118,1.072,0.225,1.19,0.764l1.489,6.84
	C34.113,31.868,33.771,32.401,33.232,32.518z"/>
<path style="fill:#FFFFFF;" d="M13.69,36.774l-2.931,0.638l-1.702-7.817c-0.118-0.54,0.225-1.072,0.764-1.19l0.977-0.213
	c0.54-0.118,1.072,0.225,1.19,0.764L13.69,36.774z"/>
<path style="fill:#FFFFFF;" d="M17.598,35.923l-2.931,0.638l-1.702-7.817c-0.118-0.54,0.225-1.072,0.764-1.19l0.977-0.213
	c0.54-0.118,1.072,0.225,1.19,0.764L17.598,35.923z"/>
<path style="fill:#FFFFFF;" d="M21.506,35.072l-2.931,0.638l-1.702-7.817c-0.118-0.54,0.225-1.072,0.764-1.19l0.977-0.213
	c0.54-0.118,1.072,0.225,1.19,0.764L21.506,35.072z"/>
<path style="fill:#FFFFFF;" d="M25.415,34.221l-2.931,0.638l-1.702-7.817c-0.118-0.54,0.225-1.072,0.764-1.19l0.977-0.213
	c0.54-0.118,1.072,0.225,1.19,0.764L25.415,34.221z"/>
<path style="fill:#FFFFFF;" d="M29.323,33.37l-2.931,0.638l-1.702-7.817c-0.118-0.54,0.225-1.072,0.764-1.19l0.977-0.213
	c0.54-0.118,1.072,0.225,1.19,0.764L29.323,33.37z"/>
<path style="fill:#FFFFFF;" d="M33.232,32.518L30.3,33.157l-1.702-7.817c-0.118-0.54,0.225-1.072,0.764-1.19l0.977-0.213
	c0.54-0.118,1.072,0.225,1.19,0.764L33.232,32.518z"/>
<path d="M15.377,36.406l-2.371,0.516l-1.072-4.925c-0.118-0.54,0.225-1.072,0.764-1.19l0.417-0.091
	c0.54-0.118,1.072,0.225,1.19,0.764L15.377,36.406z"/>
<path d="M19.268,35.559l-2.331,0.508l-1.065-4.877c-0.118-0.54,0.225-1.072,0.764-1.19l0.38-0.083
	c0.54-0.118,1.072,0.225,1.19,0.764L19.268,35.559z"/>
<path d="M23.194,34.704l-2.371,0.516l-1.072-4.925c-0.118-0.54,0.225-1.072,0.764-1.19l0.417-0.091
	c0.54-0.118,1.072,0.225,1.19,0.764L23.194,34.704z"/>
<path d="M31.011,33.002l-2.371,0.516l-1.072-4.925c-0.118-0.54,0.225-1.072,0.764-1.19l0.417-0.091
	c0.54-0.118,1.072,0.225,1.19,0.764L31.011,33.002z"/>
<path style="fill:#29B6F6;" d="M41.342,27.288c-0.002-0.087-0.008-0.167-0.017-0.24c-0.016-0.144-0.041-0.267-0.077-0.364
	c0-0.001-0.001-0.003-0.001-0.004l0,0c-0.175-0.478-0.539-0.461-0.721-0.461c-0.269,0-0.416,0.36-0.695,0.77l-0.004,0.001
	c-0.353,0.518-0.913,1.115-2.223,1.167c-0.996,0.04-1.235,0.025-1.58,0.016c-0.439,0.464-0.649,1.13-0.503,1.801
	c0,0,0.094,0.246,0.388,0.626c0.174,0.225,0.314,0.399,0.433,0.546c2.411-0.095,4.826-2.023,4.965-3.177
	c0.024-0.199,0.033-0.367,0.036-0.522C41.344,27.39,41.343,27.339,41.342,27.288z"/>
<path style="fill:#29B6F6;" d="M16.503,31.328c0.659-0.51,0.144-0.907-0.737-1.922c-1.757-2.024,1.316-2.582,1.316-2.582
	l-5.393-1.179l-1.965,1.213c0.088,0.172-0.659,1.592-0.613,1.701c0,0,0.082-0.22,1.292-0.281c0.566-0.029,0.356,1.646,2.332,2.893
	C14.036,31.993,16.131,31.616,16.503,31.328z"/>
</svg>
